<svg width="16" height="16" viewBox="0 0 16 16" fill="none" xmlns="http://www.w3.org/2000/svg">
<g id="brand/Figma">
<path id="Icon" d="M6.08147 14.5254C5.03039 14.5336 4.08886 13.8767 3.73362 12.8875C3.37838 11.8982 3.68699 10.7925 4.50319 10.1302C3.92427 9.66161 3.58793 8.95667 3.58793 8.21191C3.58793 7.46714 3.92427 6.76221 4.50319 6.29366C3.68673 5.63156 3.37794 4.52575 3.73324 3.53644C4.08855 2.54713 5.03033 1.89046 6.08147 1.89901H9.93879C10.9899 1.89046 11.9317 2.54713 12.287 3.53644C12.6423 4.52575 12.3335 5.63156 11.5171 6.29366C12.3333 6.95598 12.6419 8.06172 12.2866 9.05098C11.9314 10.0402 10.9899 10.6971 9.93879 10.6889C9.45331 10.6895 8.97823 10.5481 8.572 10.2823V12.05C8.56609 13.4205 7.45205 14.5278 6.08147 14.5254ZM6.06758 10.6895C5.31981 10.7013 4.72206 11.315 4.7299 12.0628C4.73775 12.8106 5.34824 13.4116 6.09609 13.4078C6.84394 13.4039 7.44817 12.7966 7.44826 12.0487V10.6895H6.06695H6.06758ZM9.93942 6.853C9.18967 6.85684 8.58461 7.46706 8.58715 8.21683C8.58971 8.96659 9.1989 9.57269 9.94867 9.57142C10.6984 9.57015 11.3056 8.96199 11.3056 8.21222C11.3028 7.45975 10.6913 6.85161 9.93879 6.853H9.93942ZM6.0821 6.85299C5.5965 6.85041 5.1464 7.10708 4.90135 7.52633C4.65631 7.94557 4.65354 8.4637 4.89409 8.88554C5.13465 9.30738 5.58198 9.56885 6.06758 9.57144H7.44826V6.85299H6.0821ZM8.572 3.01652V5.7356H9.93816C10.6689 5.73899 11.2718 5.16451 11.3037 4.43445V4.70907V4.37573C11.3006 3.62414 10.6904 3.01652 9.93879 3.01652H8.572ZM6.08084 3.01652C5.59524 3.01652 5.14652 3.27558 4.90372 3.69613C4.66092 4.11667 4.66092 4.6348 4.90372 5.05534C5.14652 5.47589 5.59524 5.73495 6.08084 5.73495H7.44826V3.01652H6.08084Z" fill="#516CF7"/>
</g>
</svg>
