<svg width="16" height="16" viewBox="0 0 16 16" fill="none" xmlns="http://www.w3.org/2000/svg">
<g id="basic/link_02">
<path id="Icon" d="M5.77832 13.6106C4.5017 13.6106 3.35078 12.8416 2.86216 11.6622C2.37354 10.4828 2.64343 9.12517 3.546 8.22233L4.88564 6.88268L5.77832 7.77536L4.4393 9.11437C3.96081 9.59287 3.77393 10.2903 3.94908 10.9439C4.12422 11.5976 4.63477 12.1081 5.28841 12.2833C5.94205 12.4584 6.63947 12.2715 7.11797 11.793L8.45698 10.454L9.34966 11.3473L8.01064 12.6863C7.41978 13.2801 6.61598 13.6129 5.77832 13.6106ZM6.22466 10.9004L5.33198 10.0077L9.796 5.54366L10.6887 6.43634L6.22529 10.8997L6.22466 10.9004ZM11.1356 9.56134L10.2423 8.66866L11.5814 7.32965C12.0664 6.85258 12.2582 6.15204 12.084 5.49441C11.9098 4.83678 11.3963 4.32311 10.7387 4.14874C10.0811 3.97437 9.3805 4.16609 8.90332 4.65099L7.56367 5.99L6.671 5.09733L8.01064 3.75768C9.24491 2.53417 11.236 2.53853 12.4649 3.76743C13.6938 4.99633 13.6982 6.98742 12.4747 8.22169L11.1356 9.56071V9.56134Z" fill="#516CF7"/>
</g>
</svg>
